<svg width="16" height="17" viewBox="0 0 16 17" fill="none" xmlns="http://www.w3.org/2000/svg">
<path d="M16.0001 8.69294C16.0001 8.11341 15.9546 7.53603 15.8595 6.96465H8.16113V10.2376H12.5698C12.3876 11.2935 11.7993 12.2276 10.9399 12.8196V14.9459H13.5719C15.1128 13.4692 16.0001 11.2811 16.0001 8.69294Z" fill="#4285F4"/>
<path d="M8.16108 17C10.3635 17 12.2193 16.2472 13.5719 14.948L10.9399 12.8216C10.207 13.3393 9.26429 13.6342 8.16108 13.6342C6.03209 13.6342 4.22579 12.1392 3.5782 10.1262H0.868896V12.3164C2.2552 15.1893 5.0755 17 8.16108 17Z" fill="#34A853"/>
<path d="M3.58025 10.1262C3.23768 9.07239 3.23768 7.92776 3.58025 6.87197V4.68382H0.869027C-0.289676 7.08632 -0.289676 9.91583 0.869027 12.3185L3.58025 10.1262Z" fill="#FBBC04"/>
<path d="M8.16108 3.36609C9.32567 3.34752 10.4486 3.80338 11.2923 4.64067L13.6234 2.21532C12.146 0.771794 10.1892 -0.022233 8.16108 0.000473924C5.0755 0.000473924 2.25328 1.81317 0.868896 4.68395L3.58012 6.87409C4.22579 4.85917 6.03209 3.36609 8.16108 3.36609Z" fill="#EA4335"/>
</svg>
